<?xml version="1.0" encoding="iso-8859-1"?>
<!-- Generator: Adobe Illustrator 19.0.0, SVG Export Plug-In . SVG Version: 6.00 Build 0)  -->
<svg xmlns="http://www.w3.org/2000/svg" xmlns:xlink="http://www.w3.org/1999/xlink" version="1.1" id="Layer_1" x="0px" y="0px" viewBox="0 0 512 512" style="enable-background:new 0 0 512 512;" xml:space="preserve" width="512" height="512">
<g id="XMLID_1261_">
	<g id="XMLID_1051_">
		<path id="XMLID_930_" style="fill:#C19476;" d="M256,0C123.21,0,15.566,107.654,15.566,240.444    c0,120.469,88.606,220.253,204.213,237.725c11.816,1.793,23.91,2.71,36.221,2.71c7.304,0,14.526-0.319,21.665-0.968    c9.653-0.855,19.151-2.287,28.443-4.255c33.522-7.108,64.469-21.201,91.233-40.682c60.049-43.711,99.093-114.566,99.093-194.529    C496.434,107.654,388.79,0,256,0z M192.634,240.444c0-35.006,28.371-63.366,63.366-63.366s63.366,28.361,63.366,63.366    c0,34.995-28.371,63.366-63.366,63.366S192.634,275.44,192.634,240.444z"/>
		<path id="XMLID_1048_" style="fill:#D8AD8F;" d="M256,17.946c-122.88,0-222.498,99.619-222.498,222.498    c0,106.222,74.441,195.055,173.987,217.193c15.618,3.472,31.853,5.305,48.511,5.305c11.96,0,23.704-0.948,35.15-2.771    c5.048-0.793,10.034-1.762,14.958-2.895c34.068-7.84,65.138-23.498,91.233-44.988c49.562-40.816,81.158-102.637,81.158-171.845    C478.499,117.564,378.88,17.946,256,17.946z M256,303.811c-34.995,0-63.366-28.371-63.366-63.366    c0-35.006,28.371-63.366,63.366-63.366s63.366,28.361,63.366,63.366C319.366,275.44,290.995,303.811,256,303.811z"/>
		<path id="XMLID_1064_" style="fill:#C19476;" d="M459.347,232.296c-9.642-22.376-20.387-37.869-30.772-52.879    c-14.556-21.036-29.607-42.783-43.824-87.071c-11.847-36.932-50.757-59.874-101.566-59.874c-29.937,0-60.544,8.262-86.175,23.251    c-35.541,20.799-48.388,44.978-58.72,64.407c-9.014,16.977-16.143,30.39-36.777,40.909    c-27.217,13.887-46.554,44.833-51.715,82.754c-6.748,49.624,11.229,99.454,48.109,133.285    c23.684,21.737,45.956,31.421,72.226,31.421c10.837,0,21.222-1.535,32.224-3.163c1.195-0.175,2.421-0.361,3.647-0.536v41.558    c0,3.904,0.515,7.685,1.483,11.28c2.122,7.963,6.449,15.041,12.29,20.531c11.816,1.793,23.91,2.71,36.221,2.71    c7.304,0,14.526-0.319,21.665-0.968c6.16-5.151,10.899-11.961,13.485-19.738c1.463-4.337,2.246-8.983,2.246-13.815V426.33    c0-3.678,2.74-6.768,6.109-6.882l0.247-0.01c3.503,0,6.356,2.854,6.356,6.356v49.861c33.522-7.108,64.469-21.201,91.233-40.682    v-33.8c0-0.515,0.247-1.01,0.67-1.308c24.889-17.575,45.946-47.296,57.793-81.518    C467.125,285.597,468.454,253.425,459.347,232.296z M256,303.811c-34.995,0-63.366-28.371-63.366-63.366    c0-35.006,28.371-63.366,63.366-63.366s63.366,28.361,63.366,63.366C319.366,275.44,290.995,303.811,256,303.811z"/>
		<path id="XMLID_1201_" style="fill:#A24223;" d="M444.398,238.738c-22.218-51.564-50.012-63.117-75.138-141.423    C352.325,44.536,266.61,33.861,205.228,69.77c-61.382,35.909-44.458,79.304-96.314,105.764    c-51.857,26.46-65.613,129.359,0,189.559c39.459,36.197,65.522,27.4,102.349,22.532c5.836-0.771,11.022,3.775,11.022,9.661v49.076    c0,15.143,12.275,27.419,27.418,27.419l0,0c15.143,0,27.419-12.276,27.419-27.419v-20.029c0-12.27,9.542-22.721,21.804-23.157    c12.874-0.458,23.454,9.843,23.454,22.615v56.869c0,16.204,13.136,29.34,29.34,29.34l0,0c16.204,0,29.34-13.136,29.34-29.34    v-81.48c0-5.808,2.82-11.253,7.564-14.604C437.174,352.279,459.603,274.017,444.398,238.738z M192.633,240.442    c0-34.998,28.369-63.367,63.367-63.367s63.367,28.369,63.367,63.367S290.998,303.809,256,303.809S192.633,275.439,192.633,240.442    z"/>
	</g>
	<path id="XMLID_1170_" style="fill:#F9E8D4;" d="M348.213,163.821h-19.527c-4.268,0-7.726-3.459-7.726-7.726   c0-4.268,3.459-7.726,7.726-7.726h19.527c4.268,0,7.726,3.459,7.726,7.726C355.94,160.362,352.481,163.821,348.213,163.821z"/>
	<path id="XMLID_1169_" style="fill:#F9E8D4;" d="M150.684,95.202h-19.527c-4.268,0-7.726-3.459-7.726-7.726   c0-4.268,3.459-7.726,7.726-7.726h19.527c4.268,0,7.726,3.459,7.726,7.726C158.41,91.743,154.952,95.202,150.684,95.202z"/>
	<path id="XMLID_1149_" style="fill:#F9E8D4;" d="M185.762,428.618h-19.527c-4.268,0-7.726-3.459-7.726-7.726   s3.459-7.726,7.726-7.726h19.527c4.268,0,7.726,3.459,7.726,7.726S190.029,428.618,185.762,428.618z"/>
	<path id="XMLID_1147_" style="fill:#F9E8D4;" d="M136.876,306.807h-19.528c-4.268,0-7.726-3.459-7.726-7.726   s3.459-7.726,7.726-7.726h19.528c4.268,0,7.726,3.459,7.726,7.726S141.144,306.807,136.876,306.807z"/>
	<path id="XMLID_1146_" style="fill:#F9E8D4;" d="M391.609,319.007H372.08c-4.268,0-7.726-3.459-7.726-7.726   c0-4.268,3.459-7.726,7.726-7.726h19.528c4.268,0,7.726,3.459,7.726,7.726C399.335,315.548,395.876,319.007,391.609,319.007z"/>
	<path id="XMLID_1148_" style="fill:#F9E8D4;" d="M262.904,121.874c-1.977,0-3.955-0.755-5.463-2.263l-13.809-13.808   c-3.018-3.017-3.018-7.909-0.001-10.927c3.018-3.018,7.91-3.017,10.927-0.001l13.809,13.808c3.018,3.017,3.018,7.909,0.001,10.927   C266.859,121.12,264.881,121.874,262.904,121.874z"/>
	<path id="XMLID_1166_" style="fill:#F9E8D4;" d="M140.921,270.376c-1.977,0-3.955-0.755-5.464-2.263l-13.808-13.808   c-3.017-3.018-3.017-7.909,0-10.928c3.018-3.016,7.909-3.016,10.928,0l13.808,13.808c3.017,3.018,3.017,7.909,0,10.928   C144.875,269.622,142.897,270.376,140.921,270.376z"/>
	<path id="XMLID_1168_" style="fill:#F9E8D4;" d="M398.512,256.397c-1.977,0-3.955-0.755-5.464-2.263l-13.808-13.808   c-3.017-3.018-3.017-7.909,0-10.928c3.018-3.016,7.909-3.016,10.928,0l13.808,13.808c3.017,3.018,3.017,7.909,0,10.928   C402.467,255.643,400.489,256.397,398.512,256.397z"/>
	<path id="XMLID_1167_" style="fill:#F9E8D4;" d="M124.253,131.277c-1.977,0-3.955-0.755-5.464-2.263l-13.808-13.808   c-3.017-3.018-3.017-7.909,0-10.928c3.018-3.016,7.909-3.016,10.928,0l13.808,13.808c3.017,3.018,3.017,7.909,0,10.928   C128.207,130.522,126.229,131.277,124.253,131.277z"/>
	<path id="XMLID_1031_" style="fill:#F9E8D4;" d="M431.179,159.099c-1.977,0-3.955-0.755-5.464-2.263l-13.809-13.809   c-3.017-3.018-3.017-7.909,0-10.928c3.018-3.016,7.909-3.016,10.928,0l13.809,13.809c3.017,3.018,3.017,7.909,0,10.928   C435.134,158.344,433.156,159.099,431.179,159.099z"/>
	<path id="XMLID_129_" style="fill:#F9E8D4;" d="M276.712,356.643c-1.977,0-3.955-0.755-5.464-2.263l-13.808-13.808   c-3.017-3.018-3.017-7.909,0-10.928c3.018-3.016,7.909-3.016,10.928,0l13.808,13.808c3.017,3.018,3.017,7.909,0,10.928   C280.667,355.888,278.689,356.643,276.712,356.643z"/>
	<path id="XMLID_127_" style="fill:#F9E8D4;" d="M345.354,383.216c-1.977,0-3.955-0.755-5.463-2.263l-13.809-13.808   c-3.018-3.017-3.018-7.909-0.001-10.927c3.018-3.018,7.91-3.017,10.927-0.001l13.809,13.808c3.018,3.017,3.018,7.909,0.001,10.927   C349.309,382.462,347.331,383.216,345.354,383.216z"/>
</g>















</svg>
