<?xml version="1.0" encoding="utf-8"?>
<!-- www.vectorico.com -->
<svg version="1.1" id="Heart" xmlns="http://www.w3.org/2000/svg" xmlns:xlink="http://www.w3.org/1999/xlink" x="0px" y="0px"
	 viewBox="0 0 64 64" style="enable-background:new 0 0 64 64;" xml:space="preserve">
<style type="text/css">
	.st0{fill:#F41E42;}
	.st1{fill:#FFFFFF;}
</style>
<title>Facebook Heart</title>
<path class="st0" d="M64,32c0,17.7-14.3,32-32,32C14.3,64,0,49.7,0,32C0,14.3,14.3,0,32,0C49.7,0,64,14.3,64,32"/>
<path class="st1" d="M50.3,27c0-1-0.6-9.8-9.1-9.8c-8.5,0-9.2,6.6-9.2,6.6c0,0-0.7-6.6-9.2-6.6c-8.5,0-9.1,8.9-9.1,9.8
	c0,9.8,12,18.8,18.3,22.3C38.3,45.8,50.3,36.8,50.3,27"/>
</svg>
