<svg xmlns="http://www.w3.org/2000/svg" style="enable-background:new 0 0 512 512;" width="512" height="512"><path d="M460.274 387.551c-3.406 8.197-12.234 14.066-22.868 11.757-10.278-2.237-19.41 3.41-22.865 11.726-1.828 4.4-2.067 9.535-.042 14.658 2.062 5.213 1.82 10.304.026 14.622-4.248 10.224-17.197 16.168-28.858 9.482-.813-.466-1.639-.873-2.479-1.222-13.428-5.579-28.596 4.368-27.712 19.217.194 3.217-.34 6.152-1.418 8.745-5.192 12.496-23.07 16.907-33.73 5.285-2.159-2.353-4.658-4.066-7.324-5.173-10.707-4.449-23.951.839-27.193 13.021a20.51 20.51 0 0 1-.892 2.637c-6.459 15.545-29.642 16.264-37.121-.052a20.23 20.23 0 0 0-10.723-10.364c-8.507-3.535-19.098-1.309-24.758 7.29-5.847 8.895-16.383 10.758-24.772 7.273-6.353-2.64-11.467-8.34-12.388-16.376-.9-7.856-6.035-13.736-12.498-16.421s-14.253-2.175-20.455 2.73c-6.345 5.017-13.992 5.415-20.345 2.775-8.389-3.485-14.503-12.266-12.325-22.686 2.1-10.078-3.795-19.153-12.303-22.688a20.23 20.23 0 0 0-14.91-.286c-5.27 1.942-10.447 1.622-14.865-.214-10.47-4.35-16.726-17.193-10.125-28.548.458-.794.858-1.602 1.196-2.415 5.45-13.117-4.912-28.212-19.988-27.583-3.266.131-6.261-.439-8.918-1.543-12.798-5.317-17.588-22.978-5.939-33.263 2.354-2.084 4.053-4.525 5.134-7.126 4.346-10.461-1.251-23.576-13.683-26.965-.94-.262-1.843-.562-2.692-.915-15.929-6.618-17.038-29.428-.571-36.523 5.059-2.18 8.529-5.972 10.357-10.372 3.455-8.316 1.013-18.771-7.824-24.477-9.139-5.906-11.209-16.303-7.803-24.5 2.575-6.198 8.287-11.136 16.445-11.91 7.977-.753 13.856-5.707 16.481-12.024s1.986-13.978-3.108-20.162c-5.207-6.327-5.738-13.859-3.163-20.057 3.406-8.197 12.234-14.066 22.867-11.757 10.278 2.236 19.41-3.41 22.865-11.726 1.828-4.4 2.067-9.535.042-14.658-2.062-5.213-1.82-10.304-.026-14.622 4.248-10.224 17.197-16.168 28.858-9.482.813.466 1.639.873 2.479 1.222 13.428 5.579 28.596-4.368 27.712-19.217-.194-3.217.34-6.152 1.418-8.745 5.192-12.496 23.07-16.907 33.73-5.285 2.159 2.353 4.658 4.066 7.324 5.173 10.707 4.449 23.951-.839 27.193-13.021a20.51 20.51 0 0 1 .892-2.637c6.459-15.545 29.642-16.264 37.121.052 2.296 5.011 6.213 8.49 10.723 10.363 8.507 3.535 19.098 1.309 24.758-7.29 5.847-8.895 16.383-10.758 24.772-7.273 6.353 2.64 11.467 8.339 12.388 16.376.682 5.954 3.797 10.773 8.079 13.927 2.461 1.813 3.343 5.085 2.17 7.907l-74.657 179.69c-2.656 6.393 3.743 12.806 10.142 10.164l203.018-83.836c4.032-1.665 8.587.912 9.174 5.235.811 5.962-1.063 12.298-6.452 17.053-2.354 2.083-4.053 4.525-5.134 7.126-4.346 10.461 1.251 23.576 13.684 26.965.94.262 1.843.562 2.692.915 15.929 6.618 17.038 29.428.571 36.523-5.059 2.18-8.529 5.972-10.357 10.372-3.455 8.316-1.013 18.771 7.824 24.477 9.139 5.906 11.209 16.303 7.803 24.5-2.575 6.198-8.287 11.136-16.444 11.91-7.977.753-13.856 5.707-16.481 12.024s-1.986 13.978 3.108 20.162c5.206 6.331 5.738 13.862 3.163 20.06z" fill="#EFCDB1"/><path d="M428.416 336.701C386.994 436.4 272.593 483.642 172.895 442.22 73.075 400.747 25.943 286.898 67.248 187.008c41.159-99.536 154.983-146.936 254.515-106.29l-67.8 163.186c-2.656 6.393 3.743 12.806 10.142 10.164l164.145-67.784c19.406 46.426 20.995 100.285.166 150.417z" fill="#D39979"/><path d="M411.73 329.769c-37.592 90.479-141.423 133.356-231.902 95.765-90.575-37.632-133.357-140.947-95.894-231.592 37.328-90.317 140.583-133.353 230.896-96.537l-60.867 146.5c-2.656 6.393 3.743 12.806 10.142 10.164l147.439-60.885c17.639 42.149 19.099 91.062.186 136.585z" fill="#F9DE69"/><path d="M507.848 127.669L308.11 210.151c-6.399 2.642-12.798-3.771-10.142-10.164l74.657-179.69c1.173-2.823 4.114-4.507 7.135-4.042 5.256.809 10.869-.383 15.569-4.101 14.73-11.649 36.495 1.611 32.67 19.91-2.1 10.078 3.795 19.153 12.303 22.688a20.23 20.23 0 0 0 14.91.286c5.27-1.942 10.447-1.622 14.865.214 10.47 4.35 16.726 17.193 10.125 28.548-.458.794-.858 1.602-1.196 2.415-5.45 13.117 4.912 28.212 19.988 27.583 3.266-.131 6.261.439 8.918 1.543l.124.052c5.399 2.284 5.232 10.037-.188 12.276z" fill="#EFCDB1"/><path d="M472.255 142.367L308.11 210.151c-6.399 2.642-12.798-3.771-10.142-10.164l67.8-163.186c.003-.001.005-.002.008-.003 50.139 20.473 87.139 59.344 106.479 105.569z" fill="#D39979"/><path d="M455.548 149.266l-147.439 60.885c-6.399 2.642-12.798-3.771-10.142-10.164l60.867-146.5c.003-.001.005-.002.008-.003 22.281 9.082 41.706 22.165 57.794 38.075 16.787 16.602 29.94 36.282 38.912 57.707z" fill="#F9DE69"/><g fill="#FF6C56"><ellipse cx="328.92" cy="261.229" rx="37.306" ry="13.344"/><ellipse cx="164.609" cy="261.229" rx="37.306" ry="13.344"/><ellipse cx="246.764" cy="343.384" rx="13.344" ry="37.306"/><ellipse cx="246.764" cy="179.074" rx="13.344" ry="37.306"/><ellipse transform="matrix(.7071 .7071 -.7071 .7071 315.084991 -122.0392)" cx="304.857" cy="319.322" rx="37.306" ry="13.344"/><ellipse transform="matrix(.7071 .7071 -.7071 .7071 198.900101 -73.913902)" cx="188.672" cy="203.137" rx="37.306" ry="13.344"/><ellipse transform="matrix(-.7071 .7071 -.7071 -.7071 547.877808 411.704895)" cx="188.672" cy="319.322" rx="37.306" ry="13.344"/><ellipse transform="matrix(-.7071 .7071 -.7071 -.7071 717.041321 3.3079)" cx="357.836" cy="150.158" rx="37.306" ry="13.344"/><path d="M119.673 311.142a7.73 7.73 0 0 1-7.726-7.726v-1.7c0-4.268 3.459-7.726 7.726-7.726a7.73 7.73 0 0 1 7.726 7.726v1.7a7.73 7.73 0 0 1-7.726 7.726zm15.796 16.755a7.73 7.73 0 0 1-7.726-7.726v-1.699c0-4.268 3.459-7.726 7.726-7.726a7.73 7.73 0 0 1 7.726 7.726v1.699c0 4.268-3.459 7.726-7.726 7.726zm133.236-203.932c-4.268 0-7.726-3.459-7.726-7.726v-1.699c0-4.268 3.459-7.726 7.726-7.726a7.73 7.73 0 0 1 7.726 7.726v1.699c.001 4.267-3.458 7.726-7.726 7.726zM393.701 283.15c-4.268 0-7.726-3.459-7.726-7.726v-1.699c0-4.268 3.459-7.726 7.726-7.726a7.73 7.73 0 0 1 7.726 7.726v1.699c.001 4.267-3.458 7.726-7.726 7.726zm-96.35 110.824c-4.268 0-7.726-3.459-7.726-7.726v-1.699c0-4.268 3.459-7.726 7.726-7.726a7.73 7.73 0 0 1 7.726 7.726v1.699c0 4.267-3.458 7.726-7.726 7.726z"/></g></svg>