<?xml version="1.0" encoding="iso-8859-1"?>
<!-- Generator: Adobe Illustrator 19.0.0, SVG Export Plug-In . SVG Version: 6.00 Build 0)  -->
<svg xmlns="http://www.w3.org/2000/svg" xmlns:xlink="http://www.w3.org/1999/xlink" version="1.1" id="Layer_1" x="0px" y="0px" viewBox="0 0 512 512" style="enable-background:new 0 0 512 512;" xml:space="preserve" width="512" height="512">
<g id="XMLID_2389_">
	<g id="XMLID_1742_">
		<path id="XMLID_613_" style="fill:#EFCDB1;" d="M460.274,387.551c-3.406,8.197-12.234,14.066-22.868,11.757    c-10.278-2.237-19.41,3.41-22.865,11.726c-1.828,4.4-2.067,9.535-0.042,14.658c2.062,5.213,1.82,10.304,0.026,14.622    c-4.248,10.224-17.197,16.168-28.858,9.482c-0.813-0.466-1.639-0.873-2.479-1.222c-13.428-5.579-28.596,4.368-27.712,19.217    c0.194,3.217-0.34,6.152-1.418,8.745c-5.192,12.496-23.07,16.907-33.73,5.285c-2.159-2.353-4.658-4.066-7.324-5.173    c-10.707-4.449-23.951,0.839-27.193,13.021c-0.245,0.926-0.543,1.797-0.892,2.637c-6.459,15.545-29.642,16.264-37.121-0.052    c-2.296-5.011-6.213-8.49-10.723-10.364c-8.507-3.535-19.098-1.309-24.758,7.29c-5.847,8.895-16.383,10.758-24.772,7.273    c-6.353-2.64-11.467-8.34-12.388-16.376c-0.9-7.856-6.035-13.736-12.498-16.421s-14.253-2.175-20.455,2.73    c-6.345,5.017-13.992,5.415-20.345,2.775c-8.389-3.485-14.503-12.266-12.325-22.686c2.1-10.078-3.795-19.153-12.303-22.688    c-4.509-1.874-9.739-2.194-14.91-0.286c-5.27,1.942-10.447,1.622-14.865-0.214c-10.47-4.35-16.726-17.193-10.125-28.548    c0.458-0.794,0.858-1.602,1.196-2.415c5.45-13.117-4.912-28.212-19.988-27.583c-3.266,0.131-6.261-0.439-8.918-1.543    c-12.798-5.317-17.588-22.978-5.939-33.263c2.354-2.084,4.053-4.525,5.134-7.126c4.346-10.461-1.251-23.576-13.683-26.965    c-0.94-0.262-1.843-0.562-2.692-0.915c-15.929-6.618-17.038-29.428-0.571-36.523c5.059-2.18,8.529-5.972,10.357-10.372    c3.455-8.316,1.013-18.771-7.824-24.477c-9.139-5.906-11.209-16.303-7.803-24.5c2.575-6.198,8.287-11.136,16.445-11.91    c7.977-0.753,13.856-5.707,16.481-12.024c2.624-6.317,1.986-13.978-3.108-20.162c-5.207-6.327-5.738-13.859-3.163-20.057    c3.406-8.197,12.234-14.066,22.867-11.757c10.278,2.236,19.41-3.41,22.865-11.726c1.828-4.4,2.067-9.535,0.042-14.658    c-2.062-5.213-1.82-10.304-0.026-14.622c4.248-10.224,17.197-16.168,28.858-9.482c0.813,0.466,1.639,0.873,2.479,1.222    c13.428,5.579,28.596-4.368,27.712-19.217c-0.194-3.217,0.34-6.152,1.418-8.745c5.192-12.496,23.07-16.907,33.73-5.285    c2.159,2.353,4.658,4.066,7.324,5.173c10.707,4.449,23.951-0.839,27.193-13.021c0.245-0.926,0.543-1.797,0.892-2.637    c6.459-15.545,29.642-16.264,37.121,0.052c2.296,5.011,6.213,8.49,10.723,10.363c8.507,3.535,19.098,1.309,24.758-7.29    c5.847-8.895,16.383-10.758,24.772-7.273c6.353,2.64,11.467,8.339,12.388,16.376c0.682,5.954,3.797,10.773,8.079,13.927    c2.461,1.813,3.343,5.085,2.17,7.907l-74.657,179.69c-2.656,6.393,3.743,12.806,10.142,10.164l203.018-83.836    c4.032-1.665,8.587,0.912,9.174,5.235c0.811,5.962-1.063,12.298-6.452,17.053c-2.354,2.083-4.053,4.525-5.134,7.126    c-4.346,10.461,1.251,23.576,13.684,26.965c0.94,0.262,1.843,0.562,2.692,0.915c15.929,6.618,17.038,29.428,0.571,36.523    c-5.059,2.18-8.529,5.972-10.357,10.372c-3.455,8.316-1.013,18.771,7.824,24.477c9.139,5.906,11.209,16.303,7.803,24.5    c-2.575,6.198-8.287,11.136-16.444,11.91c-7.977,0.753-13.856,5.707-16.481,12.024c-2.624,6.317-1.986,13.978,3.108,20.162    C462.317,373.822,462.849,381.353,460.274,387.551z"/>
		<path id="XMLID_589_" style="fill:#D39979;" d="M428.416,336.701C386.994,436.4,272.593,483.642,172.895,442.22    C73.075,400.747,25.943,286.898,67.248,187.008c41.159-99.536,154.983-146.936,254.515-106.29l-67.8,163.186    c-2.656,6.393,3.743,12.806,10.142,10.164l164.145-67.784C447.656,232.71,449.245,286.569,428.416,336.701z"/>
		<path id="XMLID_2307_" style="fill:#F9DE69;" d="M411.73,329.769c-37.592,90.479-141.423,133.356-231.902,95.765    C89.253,387.902,46.471,284.587,83.934,193.942c37.328-90.317,140.583-133.353,230.896-96.537l-60.867,146.5    c-2.656,6.393,3.743,12.806,10.142,10.164l147.439-60.885C429.183,235.333,430.643,284.246,411.73,329.769z"/>
		<g id="XMLID_2193_">
			<path id="XMLID_2278_" style="fill:#EFCDB1;" d="M507.848,127.669l-199.738,82.482c-6.399,2.642-12.798-3.771-10.142-10.164     l74.657-179.69c1.173-2.823,4.114-4.507,7.135-4.042c5.256,0.809,10.869-0.383,15.569-4.101     c14.73-11.649,36.495,1.611,32.67,19.91c-2.1,10.078,3.795,19.153,12.303,22.688c4.509,1.874,9.739,2.194,14.91,0.286     c5.27-1.942,10.447-1.622,14.865,0.214c10.47,4.35,16.726,17.193,10.125,28.548c-0.458,0.794-0.858,1.602-1.196,2.415     c-5.45,13.117,4.912,28.212,19.988,27.583c3.266-0.131,6.261,0.439,8.918,1.543c0.041,0.017,0.082,0.034,0.124,0.052     C513.435,117.677,513.268,125.43,507.848,127.669z"/>
			<path id="XMLID_2277_" style="fill:#D39979;" d="M472.255,142.367l-164.145,67.784c-6.399,2.642-12.798-3.771-10.142-10.164     l67.8-163.186c0.003-0.001,0.005-0.002,0.008-0.003C415.915,57.271,452.915,96.142,472.255,142.367z"/>
			<path id="XMLID_2280_" style="fill:#F9DE69;" d="M455.548,149.266l-147.439,60.885c-6.399,2.642-12.798-3.771-10.142-10.164     l60.867-146.5c0.003-0.001,0.005-0.002,0.008-0.003c22.281,9.082,41.706,22.165,57.794,38.075     C433.423,108.161,446.576,127.841,455.548,149.266z"/>
		</g>
		<g id="XMLID_371_">
			<g id="XMLID_1034_">
				<ellipse id="XMLID_1042_" style="fill:#FF6C56;" cx="328.92" cy="261.229" rx="37.306" ry="13.344"/>
				<ellipse id="XMLID_1039_" style="fill:#FF6C56;" cx="164.609" cy="261.229" rx="37.306" ry="13.344"/>
			</g>
		</g>
		<g id="XMLID_1040_">
			<g id="XMLID_1079_">
				<ellipse id="XMLID_1233_" style="fill:#FF6C56;" cx="246.764" cy="343.384" rx="13.344" ry="37.306"/>
				<ellipse id="XMLID_1230_" style="fill:#FF6C56;" cx="246.764" cy="179.074" rx="13.344" ry="37.306"/>
			</g>
		</g>
		<g id="XMLID_1588_">
			<g id="XMLID_1597_">
				
					<ellipse id="XMLID_1600_" transform="matrix(0.7071 0.7071 -0.7071 0.7071 315.085 -122.0392)" style="fill:#FF6C56;" cx="304.857" cy="319.322" rx="37.306" ry="13.344"/>
				
					<ellipse id="XMLID_1598_" transform="matrix(0.7071 0.7071 -0.7071 0.7071 198.9001 -73.9139)" style="fill:#FF6C56;" cx="188.672" cy="203.137" rx="37.306" ry="13.344"/>
			</g>
		</g>
		
			<ellipse id="XMLID_1584_" transform="matrix(-0.7071 0.7071 -0.7071 -0.7071 547.8778 411.7049)" style="fill:#FF6C56;" cx="188.672" cy="319.322" rx="37.306" ry="13.344"/>
		
			<ellipse id="XMLID_1045_" transform="matrix(-0.7071 0.7071 -0.7071 -0.7071 717.0413 3.3079)" style="fill:#FF6C56;" cx="357.836" cy="150.158" rx="37.306" ry="13.344"/>
	</g>
	<path id="XMLID_2301_" style="fill:#FF6C56;" d="M119.673,311.142c-4.267,0-7.726-3.459-7.726-7.726v-1.7   c0-4.268,3.459-7.726,7.726-7.726c4.267,0,7.726,3.459,7.726,7.726v1.7C127.399,307.683,123.94,311.142,119.673,311.142z"/>
	<path id="XMLID_2298_" style="fill:#FF6C56;" d="M135.469,327.897c-4.267,0-7.726-3.459-7.726-7.726v-1.699   c0-4.268,3.459-7.726,7.726-7.726s7.726,3.459,7.726,7.726v1.699C143.195,324.439,139.736,327.897,135.469,327.897z"/>
	<path id="XMLID_2297_" style="fill:#FF6C56;" d="M268.705,123.965c-4.268,0-7.726-3.459-7.726-7.726v-1.699   c0-4.268,3.459-7.726,7.726-7.726s7.726,3.459,7.726,7.726v1.699C276.432,120.506,272.973,123.965,268.705,123.965z"/>
	<path id="XMLID_714_" style="fill:#FF6C56;" d="M393.701,283.15c-4.268,0-7.726-3.459-7.726-7.726v-1.699   c0-4.268,3.459-7.726,7.726-7.726s7.726,3.459,7.726,7.726v1.699C401.428,279.691,397.969,283.15,393.701,283.15z"/>
	<path id="XMLID_713_" style="fill:#FF6C56;" d="M297.351,393.974c-4.268,0-7.726-3.459-7.726-7.726v-1.699   c0-4.268,3.459-7.726,7.726-7.726s7.726,3.459,7.726,7.726v1.699C305.077,390.515,301.619,393.974,297.351,393.974z"/>
</g>















</svg>
