<?xml version="1.0" encoding="UTF-8"?>
<svg enable-background="new 0 0 512 512" version="1.1" viewBox="0 0 512 512" xml:space="preserve" xmlns="http://www.w3.org/2000/svg">

	
		
			<path d="m383.25 189.96h-254.51l18.024-38.91 9.166-19.792c1.329-2.87 4.204-4.707 7.367-4.707h185.39c3.163 0 6.038 1.837 7.367 4.707l9.166 19.792 18.025 38.91z" fill="#F9E8D4"/>
			<polygon points="383.25 189.96 128.75 189.96 146.77 151.05 365.23 151.05" fill="#EFCDB1"/>
			<path d="m387.12 202.33-7.683 48.917-4.201 26.803-2.314 14.685-23.372 148.79-2.304 14.675-4.039 25.757-2.375 15.122-1.269 8.058c-0.619 3.948-4.019 6.861-8.018 6.861h-151.08c-3.999 0-7.398-2.913-8.018-6.861l-1.269-8.058-2.375-15.122-4.039-25.757-2.314-14.675-23.372-148.79-2.314-14.685-4.202-26.803-7.682-48.917h262.24z" fill="#EFCDB1"/>
			<polygon points="387.12 202.33 379.44 251.25 132.56 251.25 124.87 202.33" fill="#D8AD8F"/>
			<polygon points="375.23 278.06 372.92 292.74 349.55 441.52 347.25 456.21 164.76 456.21 162.45 441.52 139.08 292.74 136.77 278.06" fill="#D8AD8F"/>
			<polygon points="372.92 292.74 365.8 338.06 363.41 353.28 360.58 371.27 358.2 386.49 357.51 390.84 355.12 406.07 349.55 441.53 162.46 441.53 139.08 292.74" fill="#8BCC3F"/>
			<path d="m256 431.62c-35.558 0-64.487-28.928-64.487-64.486s28.929-64.487 64.487-64.487 64.487 28.929 64.487 64.487-28.929 64.486-64.487 64.486z" fill="#75AC35"/>
			<path d="m396.17 234.03h-280.34c-4.484 0-8.119-3.635-8.119-8.119v-47.165c0-4.484 3.635-8.119 8.119-8.119h280.34c4.484 0 8.119 3.635 8.119 8.119v47.165c0 4.484-3.635 8.119-8.119 8.119z" fill="#F9E8D4"/>
			<path d="m404.29 203.45h-296.57c-4.204 0-7.612-3.407-7.612-7.611s3.407-7.611 7.612-7.611h296.58c4.204 0 7.612 3.407 7.612 7.611s-3.408 7.611-7.613 7.611z" fill="#8BCC3F"/>
			<circle cx="256" cy="367.13" r="50.858" fill="#F9E8D4"/>
			
				<path d="m269.37 381.91c-8.474 8.464-19.029 12.462-26.934 10.971-2.771-0.507-5.216-1.705-7.135-3.623-1.918-1.918-3.116-4.364-3.623-7.135-1.502-7.906 2.497-18.46 10.971-26.935 8.464-8.464 19.029-12.473 26.934-10.981 2.771 0.518 5.216 1.715 7.134 3.633s3.116 4.364 3.623 7.135c1.502 7.907-2.496 18.461-10.97 26.935z" fill="#B72F00"/>
				<path d="m280.34 354.98-37.905 37.905c-2.771-0.507-5.216-1.705-7.135-3.623-1.918-1.918-3.116-4.364-3.623-7.135l37.905-37.916c2.771 0.518 5.216 1.715 7.134 3.633 1.92 1.919 3.117 4.365 3.624 7.136z" fill="#8B381E"/>
			
			<path d="m343.21 481.96-2.375 15.122h-169.66l-2.375-15.122c0.386-0.071 0.771-0.101 1.177-0.101h172.04c0.407 0 0.803 0.03 1.188 0.101z" fill="#D8AD8F"/>
			<path d="m365.8 338.06-2.385 15.223h-21.393c-4.212 0-7.612-3.41-7.612-7.611 0-4.202 3.4-7.612 7.612-7.612h23.778z" fill="#8B381E"/>
			<path d="m360.58 371.27-2.385 15.223h-16.177c-4.212 0-7.612-3.41-7.612-7.612s3.4-7.611 7.612-7.611h18.562z" fill="#8B381E"/>
			<path d="m357.51 390.84-2.385 15.223h-13.102c-4.212 0-7.612-3.41-7.612-7.612s3.4-7.611 7.612-7.611h15.487z" fill="#8B381E"/>
		
		<path d="m263.61 126.55v12.503c0 4.212-3.4 7.611-7.612 7.611-4.202 0-7.611-3.4-7.611-7.611v-12.503h15.223z" fill="#EFCDB1"/>
	
	<g fill="#D8AD8F">
		<path d="m251.96 106.9c-1.947 0-3.896-0.743-5.383-2.229-4.87-4.871-7.553-11.348-7.553-18.236s2.683-13.365 7.553-18.236l7.279-7.278c1.996-1.995 3.095-4.649 3.095-7.471s-1.099-5.475-3.094-7.47l-7.279-7.28c-4.87-4.87-7.553-11.346-7.553-18.235 0-6.888 2.683-13.365 7.554-18.235 2.972-2.972 7.792-2.971 10.764 1e-3s2.972 7.792-1e-3 10.764c-1.995 1.995-3.094 4.648-3.094 7.47 0 2.823 1.099 5.476 3.094 7.471l7.279 7.28c4.87 4.87 7.553 11.346 7.553 18.234s-2.683 13.365-7.553 18.236l-7.278 7.278c-4.12 4.119-4.12 10.823 0 14.942 2.972 2.973 2.972 7.792 0 10.765-1.487 1.485-3.435 2.229-5.383 2.229z"/>
		<path d="m285.53 106.9c-1.948 0-3.896-0.743-5.383-2.23-10.054-10.055-10.054-26.415 0-36.47l7.28-7.279c4.118-4.119 4.119-10.822-1e-3 -14.941-2.972-2.973-2.972-7.792 0-10.765 2.973-2.971 7.792-2.971 10.765 0 10.054 10.055 10.054 26.414 0 36.47l-7.28 7.279c-4.118 4.119-4.118 10.823 1e-3 14.943 2.972 2.972 2.972 7.792-1e-3 10.764-1.485 1.485-3.433 2.229-5.381 2.229z"/>
		<path d="m219.19 106.9c-1.948 0-3.896-0.743-5.383-2.23-10.054-10.055-10.054-26.415 0-36.47l7.28-7.279c4.118-4.119 4.119-10.822-1e-3 -14.941-2.972-2.973-2.972-7.792 0-10.765 2.973-2.971 7.792-2.971 10.765 0 10.054 10.055 10.054 26.414 0 36.47l-7.28 7.279c-4.118 4.119-4.118 10.823 1e-3 14.943 2.972 2.972 2.972 7.792-1e-3 10.764-1.485 1.485-3.433 2.229-5.381 2.229z"/>
	</g>

</svg>
