<?xml version="1.0" encoding="iso-8859-1"?>
<!-- Generator: Adobe Illustrator 19.0.0, SVG Export Plug-In . SVG Version: 6.00 Build 0)  -->
<svg xmlns="http://www.w3.org/2000/svg" xmlns:xlink="http://www.w3.org/1999/xlink" version="1.1" id="Layer_1" x="0px" y="0px" viewBox="0 0 512 512" style="enable-background:new 0 0 512 512;" xml:space="preserve" width="512" height="512">
<g id="XMLID_3304_">
	<g id="XMLID_32_">
		<g id="XMLID_56_">
			<path id="XMLID_1932_" style="fill:#F9E8D4;" d="M383.254,189.962H128.746l18.024-38.91l9.166-19.792     c1.329-2.87,4.204-4.707,7.367-4.707h185.393c3.163,0,6.038,1.837,7.367,4.707l9.166,19.792L383.254,189.962z"/>
			<polygon id="XMLID_524_" style="fill:#EFCDB1;" points="383.249,189.961 128.751,189.961 146.771,151.052 365.229,151.052    "/>
			<path id="XMLID_2061_" style="fill:#EFCDB1;" d="M387.121,202.334l-7.683,48.917l-4.201,26.803l-2.314,14.685l-23.372,148.79     l-2.304,14.675l-4.039,25.757l-2.375,15.122l-1.269,8.058c-0.619,3.948-4.019,6.861-8.018,6.861H180.464     c-3.999,0-7.398-2.913-8.018-6.861l-1.269-8.058l-2.375-15.122l-4.039-25.757l-2.314-14.675l-23.372-148.79l-2.314-14.685     l-4.202-26.803l-7.682-48.917H387.121z"/>
			<polygon id="XMLID_1309_" style="fill:#D8AD8F;" points="387.125,202.334 379.441,251.247 132.558,251.247 124.874,202.334         "/>
			<polygon id="XMLID_483_" style="fill:#D8AD8F;" points="375.233,278.057 372.923,292.74 349.548,441.523 347.248,456.206      164.762,456.206 162.452,441.523 139.077,292.74 136.767,278.057    "/>
			<polygon id="XMLID_1101_" style="fill:#8BCC3F;" points="372.923,292.738 365.798,338.062 363.414,353.285 360.582,371.268      358.197,386.491 357.507,390.845 355.122,406.068 349.55,441.528 162.46,441.528 139.077,292.738    "/>
			<path id="XMLID_337_" style="fill:#75AC35;" d="M256,431.618c-35.558,0-64.487-28.928-64.487-64.486s28.929-64.487,64.487-64.487     s64.487,28.929,64.487,64.487S291.558,431.618,256,431.618z"/>
			<path id="XMLID_1307_" style="fill:#F9E8D4;" d="M396.168,234.033H115.832c-4.484,0-8.119-3.635-8.119-8.119v-47.165     c0-4.484,3.635-8.119,8.119-8.119h280.336c4.484,0,8.119,3.635,8.119,8.119v47.165     C404.287,230.398,400.652,234.033,396.168,234.033z"/>
			<path id="XMLID_553_" style="fill:#8BCC3F;" d="M404.287,203.446H107.713c-4.204,0-7.612-3.407-7.612-7.611     s3.407-7.611,7.612-7.611h296.575c4.204,0,7.612,3.407,7.612,7.611S408.492,203.446,404.287,203.446z"/>
			<circle id="XMLID_58_" style="fill:#F9E8D4;" cx="256" cy="367.132" r="50.858"/>
			<g id="XMLID_60_">
				<path id="XMLID_2064_" style="fill:#B72F00;" d="M269.366,381.914c-8.474,8.464-19.029,12.462-26.934,10.971      c-2.771-0.507-5.216-1.705-7.135-3.623c-1.918-1.918-3.116-4.364-3.623-7.135c-1.502-7.906,2.497-18.46,10.971-26.935      c8.464-8.464,19.029-12.473,26.934-10.981c2.771,0.518,5.216,1.715,7.134,3.633c1.918,1.918,3.116,4.364,3.623,7.135      C281.838,362.886,277.84,373.44,269.366,381.914z"/>
				<path id="XMLID_2005_" style="fill:#8B381E;" d="M280.336,354.98l-37.905,37.905c-2.771-0.507-5.216-1.705-7.135-3.623      c-1.918-1.918-3.116-4.364-3.623-7.135l37.905-37.916c2.771,0.518,5.216,1.715,7.134,3.633      C278.632,349.763,279.829,352.209,280.336,354.98z"/>
			</g>
			<path id="XMLID_2029_" style="fill:#D8AD8F;" d="M343.207,481.96l-2.375,15.122H171.177l-2.375-15.122     c0.386-0.071,0.771-0.101,1.177-0.101h172.04C342.426,481.859,342.822,481.889,343.207,481.96z"/>
			<path id="XMLID_889_" style="fill:#8B381E;" d="M365.798,338.062l-2.385,15.223H342.02c-4.212,0-7.612-3.41-7.612-7.611     c0-4.202,3.4-7.612,7.612-7.612H365.798z"/>
			<path id="XMLID_661_" style="fill:#8B381E;" d="M360.582,371.268l-2.385,15.223H342.02c-4.212,0-7.612-3.41-7.612-7.612     s3.4-7.611,7.612-7.611H360.582z"/>
			<path id="XMLID_648_" style="fill:#8B381E;" d="M357.507,390.845l-2.385,15.223H342.02c-4.212,0-7.612-3.41-7.612-7.612     c0-4.202,3.4-7.611,7.612-7.611H357.507z"/>
		</g>
		<path id="XMLID_1927_" style="fill:#EFCDB1;" d="M263.612,126.554v12.503c0,4.212-3.4,7.611-7.612,7.611    c-4.202,0-7.611-3.4-7.611-7.611v-12.503H263.612z"/>
	</g>
	<g id="XMLID_3300_">
		<path id="XMLID_1185_" style="fill:#D8AD8F;" d="M251.96,106.899c-1.947,0-3.896-0.743-5.383-2.229    c-4.87-4.871-7.553-11.348-7.553-18.236c0-6.888,2.683-13.365,7.553-18.236l7.279-7.278c1.996-1.995,3.095-4.649,3.095-7.471    s-1.099-5.475-3.094-7.47l-7.279-7.28c-4.87-4.87-7.553-11.346-7.553-18.235c0-6.888,2.683-13.365,7.554-18.235    c2.972-2.972,7.792-2.971,10.764,0.001c2.972,2.972,2.972,7.792-0.001,10.764c-1.995,1.995-3.094,4.648-3.094,7.47    c0,2.823,1.099,5.476,3.094,7.471l7.279,7.28c4.87,4.87,7.553,11.346,7.553,18.234s-2.683,13.365-7.553,18.236l-7.278,7.278    c-4.12,4.119-4.12,10.823,0,14.942c2.972,2.973,2.972,7.792,0,10.765C255.856,106.155,253.908,106.899,251.96,106.899z"/>
		<path id="XMLID_1145_" style="fill:#D8AD8F;" d="M285.529,106.899c-1.948,0-3.896-0.743-5.383-2.23    c-10.054-10.055-10.054-26.415,0-36.47l7.28-7.279c4.118-4.119,4.119-10.822-0.001-14.941c-2.972-2.973-2.972-7.792,0-10.765    c2.973-2.971,7.792-2.971,10.765,0c10.054,10.055,10.054,26.414,0,36.47l-7.28,7.279c-4.118,4.119-4.118,10.823,0.001,14.943    c2.972,2.972,2.972,7.792-0.001,10.764C289.425,106.155,287.477,106.899,285.529,106.899z"/>
		<path id="XMLID_516_" style="fill:#D8AD8F;" d="M219.191,106.899c-1.948,0-3.896-0.743-5.383-2.23    c-10.054-10.055-10.054-26.415,0-36.47l7.28-7.279c4.118-4.119,4.119-10.822-0.001-14.941c-2.972-2.973-2.972-7.792,0-10.765    c2.973-2.971,7.792-2.971,10.765,0c10.054,10.055,10.054,26.414,0,36.47l-7.28,7.279c-4.118,4.119-4.118,10.823,0.001,14.943    c2.972,2.972,2.972,7.792-0.001,10.764C223.087,106.155,221.139,106.899,219.191,106.899z"/>
	</g>
</g>
</svg>
