<svg xmlns="http://www.w3.org/2000/svg" style="enable-background:new 0 0 512 512;" width="512" height="512"><path d="M490.261 383.875l-.12.11c-23.458 20.567-58.328 21.104-82.433 1.314l-3.165-2.563c-40.707-32.614-93.122-59.018-147.595-59.018-62.654 0-110.863 24.466-146.237 53.992l-4.709 4.019c-23.25 20.348-57.606 21.454-81.809 2.256l-.022-.011c-30.216-23.951-32.351-68.94-5.005-95.422l2.354-2.179c66.75-58.537 148.241-90.077 235.427-90.077 53.937 0 108.191 14.467 161.252 42.985 24.663 13.262 48.516 29.383 70.813 47.76l2.409 2.103c27.786 25.297 27.468 69.63-1.16 94.731z" fill="#D8AD8F"/><path d="M491.422 289.143l-86.879 93.593c-40.707-32.614-93.122-59.018-147.595-59.018-62.654 0-110.863 24.466-146.237 53.992l-91.074-88.686a9.51 9.51 0 0 1-.471-.471l2.354-2.179c66.75-58.537 148.241-90.077 235.427-90.077 53.937 0 108.191 14.467 161.252 42.985 24.663 13.262 48.516 29.383 70.813 47.76l2.41 2.101z" fill="#C19476"/><path d="M482.387 274.731l-96.791 104.27c-12.803 13.799-33.589 16.471-49.545 6.472l-1.183-.734c-24.576-15.157-52.535-24.203-76.957-24.203-32.778 0-57.803 9.561-76.212 21.367-1.511.975-3.077 1.829-4.676 2.552-14.489 6.713-31.891 3.844-43.587-7.546L31.103 277.261c-16.854-16.406-15.551-43.894 2.815-58.569 29.701-23.732 62.873-42.317 98.433-55.295 39.426-14.39 81.765-21.892 125.561-21.892 40.839 0 81.787 7.601 122.045 22.615l20.293 8.203c27.05 11.839 53.083 26.919 76.848 44.431 18.738 13.787 21.114 40.925 5.289 57.977z" fill="#EFCDB1"/><path d="M380.877 207.488l-27.204 136.063a98.75 98.75 0 0 1-18.804 41.189c-24.576-15.157-52.535-24.203-76.957-24.203-32.778 0-57.803 9.561-76.212 21.367-1.511.975-3.077 1.829-4.676 2.552-9.024-11.751-15.529-25.638-18.574-40.904l-27.204-136.063c-2.968-14.828-2.519-29.865 1.106-44.091 39.426-14.39 81.765-21.892 125.561-21.892 40.839 0 81.787 7.601 122.045 22.615 3.448 14.017 3.843 28.779.919 43.367z" fill="#D8AD8F"/><path d="M256.06 407.143c-39.619 0-73.729-27.964-81.499-66.813l-27.212-136.06c-10.286-51.43 29.051-99.413 81.499-99.413h54.424c52.448 0 91.785 47.983 81.499 99.413l-27.212 136.06c-7.769 38.849-41.88 66.813-81.499 66.813z" fill="#F9E8D4"/><path d="M431.611 256.613c-4.268 0-7.726-3.459-7.726-7.726v-1.806a7.73 7.73 0 0 1 7.726-7.726 7.73 7.73 0 0 1 7.726 7.726v1.806a7.73 7.73 0 0 1-7.726 7.726zm-346.527-1.807c-4.268 0-7.726-3.459-7.726-7.726v-1.806a7.73 7.73 0 0 1 7.726-7.726c4.268 0 7.726 3.459 7.726 7.726v1.806c.001 4.267-3.458 7.726-7.726 7.726z" fill="#D8AD8F"/><path d="M60.991 374.976c-4.268 0-7.726-3.459-7.726-7.726v-1.806a7.73 7.73 0 0 1 7.726-7.726 7.73 7.73 0 0 1 7.726 7.726v1.806a7.73 7.73 0 0 1-7.726 7.726zm410.745-34.818c-4.268 0-7.726-3.459-7.726-7.726v-1.806a7.73 7.73 0 0 1 7.726-7.726 7.73 7.73 0 0 1 7.726 7.726v1.806a7.73 7.73 0 0 1-7.726 7.726z" fill="#C19476"/><path d="M409.351 271.752c-4.268 0-7.726-3.459-7.726-7.726v-1.806a7.73 7.73 0 0 1 7.726-7.726 7.73 7.73 0 0 1 7.726 7.726v1.806c.001 4.266-3.458 7.726-7.726 7.726zm-176.42 55.037c-4.268 0-7.726-3.459-7.726-7.726v-1.806a7.73 7.73 0 0 1 7.726-7.726 7.73 7.73 0 0 1 7.726 7.726v1.806a7.73 7.73 0 0 1-7.726 7.726zm-21.306-43.806c-4.268 0-7.726-3.459-7.726-7.726v-1.807a7.73 7.73 0 0 1 7.726-7.726 7.73 7.73 0 0 1 7.726 7.726v1.807a7.73 7.73 0 0 1-7.726 7.726z" fill="#D8AD8F"/></svg>