<svg xmlns="http://www.w3.org/2000/svg" style="enable-background:new 0 0 512 512;" width="512" height="512"><path d="M256 0C123.21 0 15.566 107.654 15.566 240.444c0 120.469 88.606 220.253 204.213 237.725 11.816 1.793 23.91 2.71 36.221 2.71 7.304 0 14.526-.319 21.665-.968a239.09 239.09 0 0 0 28.443-4.255c33.522-7.108 64.469-21.201 91.233-40.682 60.049-43.711 99.093-114.566 99.093-194.529C496.434 107.654 388.79 0 256 0zm-63.366 240.444c0-35.006 28.371-63.366 63.366-63.366s63.366 28.361 63.366 63.366c0 34.995-28.371 63.366-63.366 63.366s-63.366-28.37-63.366-63.366z" fill="#C19476"/><path d="M256 17.946c-122.88 0-222.498 99.619-222.498 222.498 0 106.222 74.441 195.055 173.987 217.193 15.618 3.472 31.853 5.305 48.511 5.305a223.4 223.4 0 0 0 35.15-2.771c5.048-.793 10.034-1.762 14.958-2.895 34.068-7.84 65.138-23.498 91.233-44.988 49.562-40.816 81.158-102.637 81.158-171.845 0-122.879-99.619-222.497-222.499-222.497zm0 285.865c-34.995 0-63.366-28.371-63.366-63.366 0-35.006 28.371-63.366 63.366-63.366s63.366 28.361 63.366 63.366c0 34.995-28.371 63.366-63.366 63.366z" fill="#D8AD8F"/><path d="M459.347 232.296c-9.642-22.376-20.387-37.869-30.772-52.879-14.556-21.036-29.607-42.783-43.824-87.071-11.847-36.932-50.757-59.874-101.566-59.874-29.937 0-60.544 8.262-86.175 23.251-35.541 20.799-48.388 44.978-58.72 64.407-9.014 16.977-16.143 30.39-36.777 40.909-27.217 13.887-46.554 44.833-51.715 82.754-6.748 49.624 11.229 99.454 48.109 133.285 23.684 21.737 45.956 31.421 72.226 31.421 10.837 0 21.222-1.535 32.224-3.163l3.647-.536v41.558c0 3.904.515 7.685 1.483 11.28 2.122 7.963 6.449 15.041 12.29 20.531 11.816 1.793 23.91 2.71 36.221 2.71 7.304 0 14.526-.319 21.665-.968 6.16-5.151 10.899-11.961 13.485-19.738a43.14 43.14 0 0 0 2.246-13.815V426.33c0-3.678 2.74-6.768 6.109-6.882l.247-.01a6.37 6.37 0 0 1 6.356 6.356v49.861c33.522-7.108 64.469-21.201 91.233-40.682v-33.8c0-.515.247-1.01.67-1.308 24.889-17.575 45.946-47.296 57.793-81.518 11.323-32.75 12.652-64.922 3.545-86.051zM256 303.811c-34.995 0-63.366-28.371-63.366-63.366 0-35.006 28.371-63.366 63.366-63.366s63.366 28.361 63.366 63.366c0 34.995-28.371 63.366-63.366 63.366z" fill="#C19476"/><path d="M444.398 238.738c-22.218-51.564-50.012-63.117-75.138-141.423-16.935-52.779-102.65-63.454-164.032-27.545s-44.458 79.304-96.314 105.764-65.613 129.359 0 189.559c39.459 36.197 65.522 27.4 102.349 22.532 5.836-.771 11.022 3.775 11.022 9.661v49.076c0 15.143 12.275 27.419 27.418 27.419s27.419-12.276 27.419-27.419v-20.029c0-12.27 9.542-22.721 21.804-23.157 12.874-.458 23.454 9.843 23.454 22.615v56.869c0 16.204 13.136 29.34 29.34 29.34s29.34-13.136 29.34-29.34v-81.48a17.88 17.88 0 0 1 7.564-14.604c48.55-34.297 70.979-112.559 55.774-147.838zm-251.765 1.704c0-34.998 28.369-63.367 63.367-63.367s63.367 28.369 63.367 63.367-28.369 63.367-63.367 63.367-63.367-28.37-63.367-63.367z" fill="#A24223"/><path d="M348.213 163.821h-19.527c-4.268 0-7.726-3.459-7.726-7.726s3.459-7.726 7.726-7.726h19.527c4.268 0 7.726 3.459 7.726 7.726s-3.458 7.726-7.726 7.726zM150.684 95.202h-19.527c-4.268 0-7.726-3.459-7.726-7.726s3.459-7.726 7.726-7.726h19.527c4.268 0 7.726 3.459 7.726 7.726s-3.458 7.726-7.726 7.726zm35.078 333.416h-19.527c-4.268 0-7.726-3.459-7.726-7.726a7.73 7.73 0 0 1 7.726-7.726h19.527c4.268 0 7.726 3.459 7.726 7.726a7.73 7.73 0 0 1-7.726 7.726zm-48.886-121.811h-19.528c-4.268 0-7.726-3.459-7.726-7.726a7.73 7.73 0 0 1 7.726-7.726h19.528c4.268 0 7.726 3.459 7.726 7.726s-3.458 7.726-7.726 7.726zm254.733 12.2H372.08c-4.268 0-7.726-3.459-7.726-7.726s3.459-7.726 7.726-7.726h19.528c4.268 0 7.726 3.459 7.726 7.726s-3.458 7.726-7.725 7.726zM262.904 121.874c-1.977 0-3.955-.755-5.463-2.263l-13.809-13.808a7.73 7.73 0 0 1-.001-10.927 7.73 7.73 0 0 1 10.927-.001l13.809 13.808a7.73 7.73 0 0 1 .001 10.927 7.7 7.7 0 0 1-5.464 2.264zM140.921 270.376c-1.977 0-3.955-.755-5.464-2.263l-13.808-13.808a7.73 7.73 0 0 1 0-10.928 7.73 7.73 0 0 1 10.928 0l13.808 13.808a7.73 7.73 0 0 1 0 10.928c-1.51 1.509-3.488 2.263-5.464 2.263zm257.591-13.979c-1.977 0-3.955-.755-5.464-2.263l-13.808-13.808a7.73 7.73 0 0 1 0-10.928 7.73 7.73 0 0 1 10.928 0l13.808 13.808a7.73 7.73 0 0 1 0 10.928 7.7 7.7 0 0 1-5.464 2.263zm-274.259-125.12c-1.977 0-3.955-.755-5.464-2.263l-13.808-13.808a7.73 7.73 0 0 1 0-10.928c3.018-3.016 7.909-3.016 10.928 0l13.808 13.808a7.73 7.73 0 0 1 0 10.928 7.71 7.71 0 0 1-5.464 2.263zm306.926 27.822a7.71 7.71 0 0 1-5.464-2.263l-13.809-13.809a7.73 7.73 0 0 1 0-10.928 7.73 7.73 0 0 1 10.928 0l13.809 13.809a7.73 7.73 0 0 1 0 10.928 7.71 7.71 0 0 1-5.464 2.263zM276.712 356.643c-1.977 0-3.955-.755-5.464-2.263l-13.808-13.808a7.73 7.73 0 0 1 0-10.928 7.73 7.73 0 0 1 10.928 0l13.808 13.808a7.73 7.73 0 0 1 0 10.928c-1.509 1.508-3.487 2.263-5.464 2.263zm68.642 26.573c-1.977 0-3.955-.755-5.463-2.263l-13.809-13.808a7.73 7.73 0 0 1-.001-10.927 7.73 7.73 0 0 1 10.927-.001l13.809 13.808a7.73 7.73 0 0 1 .001 10.927 7.7 7.7 0 0 1-5.464 2.264z" fill="#F9E8D4"/></svg>