<svg xmlns="http://www.w3.org/2000/svg" style="enable-background:new 0 0 512 512;" width="512" height="512"><circle cx="256" cy="256" r="256" fill="#D8AD8F"/><g fill="#C19476"><path d="M481.684 273.722a64.51 64.51 0 0 0-7.45-26.983c-1.159-2.178-2.366-4.157-3.533-6.071-1.935-3.175-4.128-6.773-4.18-8.578-.027-.905.436-2.891.844-4.643l.71-3.185c4.849-23.571-3.28-49.473-21.745-69.288-8.943-9.596-19.081-17.558-29.834-23.593-1.842-6.828-5.06-13.223-9.553-18.862-7.51-9.443-18.159-16.021-29.988-18.522a52.19 52.19 0 0 0-10.761-1.127l-2.237.048c-9.442-15.3-24.723-26.182-42.751-29.985-4.52-.95-9.136-1.432-13.722-1.432-9.596 0-19.094 2.128-27.768 6.131-10.658-11.303-24.462-19.077-40.023-22.355-5.245-1.105-10.604-1.665-15.926-1.665-28.958 0-55.173 16.001-68.393 41.713-3.153 6.083-5.479 12.625-6.911 19.432l-.847 4.795a76.4 76.4 0 0 0-.797 12.433c-7.437 6.378-13.452 14.359-17.51 23.409-3.282-.504-6.627-.779-10.024-.779-36.735 0-66.622 29.886-66.622 66.622 0 21.183 10.217 41.294 27.32 53.79 11.468 8.395 25.058 12.832 39.301 12.832 13.876 0 26.771-4.269 37.45-11.555a66.31 66.31 0 0 0 14.391 4.815l5.503 1.161 31.966-17.057c3.361 9.37 8.516 17.516 13.137 24.814l3.857 6.182c6.146 10.179 8.667 17.756 7.933 23.83-.996 8.175-2.492 49.968 66.044 69.944l6.768 1.852c16.555 4.203 32.62 6.335 47.749 6.335 9.607 0 18.955-.867 27.784-2.576 8.817-1.706 17.318-4.293 25.266-7.689 33.304-14.232 59.549-42.382 70.197-75.281 3.378-10.389 4.802-19.847 4.355-28.912z"/><path d="M190.118 443.143c-32.602 0-63.253-12.696-86.306-35.749-47.59-47.589-47.59-125.022 0-172.611 23.053-23.053 53.704-35.749 86.306-35.749s63.253 12.696 86.305 35.749c47.59 47.589 47.59 125.022 0 172.611-23.053 23.053-53.704 35.749-86.305 35.749z"/><path d="M256 423.92c-92.591 0-167.92-75.328-167.92-167.92S163.409 88.08 256 88.08 423.92 163.409 423.92 256 348.591 423.92 256 423.92zm0-320.387c-84.07 0-152.467 68.396-152.467 152.467S171.93 408.467 256 408.467 408.467 340.07 408.467 256 340.07 103.533 256 103.533z"/></g><path d="M402.049 152.529c-4.049 19.264-22.551 31.781-41.794 28.608l-1.607-.299c-8.334-1.762-15.391-6.222-20.48-12.269L174.317 256c-21.819-4.605-37.406-22.54-40.043-43.505-.165-1.37-.288-2.751-.34-4.141-.185-4.172.144-8.427 1.051-12.702 4.244-20.161 19.882-34.985 38.766-39.209a58.22 58.22 0 0 1-4.564-7.479c-1.144-2.143-2.122-4.368-2.988-6.655a60.92 60.92 0 0 1-3.286-30.566 53.96 53.96 0 0 1 .67-3.791c1.164-5.532 3.029-10.724 5.511-15.515 12.362-24.044 39.683-37.88 67.415-32.039 17.019 3.585 30.885 13.887 39.456 27.537 11.445-9.045 26.671-13.114 42.062-9.879 17.678 3.729 31.266 16.215 37.179 31.956 5.81-1.823 12.166-2.246 18.554-.896 8.674 1.834 15.968 6.583 21.088 13.022a36.7 36.7 0 0 1 7.963 21.129c.134 3.039-.103 6.15-.762 9.262z" fill="#B9F268"/><path d="M402.049 152.529c-4.049 19.264-22.551 31.781-41.794 28.608l-1.607-.299c-8.334-1.762-15.391-6.222-20.48-12.269l-133.13 71.041-.196-2.081a66.67 66.67 0 0 1-14.721 1.648c-19.728 0-38.333-8.674-51.035-23.807-1.875-2.235-3.595-4.574-5.151-7.016-.185-4.172.144-8.427 1.051-12.702 4.244-20.161 19.882-34.985 38.766-39.209a58.22 58.22 0 0 1-4.564-7.479c-1.144-2.143-2.122-4.368-2.988-6.655a60.92 60.92 0 0 1-3.286-30.566 66.32 66.32 0 0 1 27.207-5.81c25.476 0 47.646 14.381 58.854 35.449 24.22-16.988 55.795-25.981 91.542-25.981 14.762 0 30.122 1.545 45.658 4.595 2.905.567 5.8 1.288 8.674 2.143a36.7 36.7 0 0 1 7.963 21.129 36.89 36.89 0 0 1-.763 9.261z" fill="#8BCC3F"/><path d="M170.454 211.239c0 28.258-22.901 51.169-51.169 51.169-11.28 0-21.716-3.657-30.174-9.849-12.733-9.303-20.995-24.343-20.995-41.321 0-28.258 22.911-51.169 51.169-51.169 24.683 0 45.276 17.472 50.098 40.713.7 3.379 1.071 6.872 1.071 10.457z" fill="#FB4239"/><g fill="#E21717"><path d="M170.454 211.239c0 28.258-22.901 51.169-51.169 51.169-11.28 0-21.716-3.657-30.174-9.849 4.244-6.274 9.148-12.228 14.701-17.781 18.09-18.08 40.857-29.793 65.571-33.996.7 3.379 1.071 6.872 1.071 10.457z"/><path d="M119.288 249.056a7.73 7.73 0 0 1-7.726-7.726v-60.176a7.73 7.73 0 0 1 7.726-7.726 7.73 7.73 0 0 1 7.726 7.726v60.176c.001 4.267-3.459 7.726-7.726 7.726z"/><path d="M149.376 218.968H89.2a7.73 7.73 0 0 1-7.726-7.726 7.73 7.73 0 0 1 7.726-7.726h60.176a7.73 7.73 0 0 1 7.726 7.726c.001 4.267-3.459 7.726-7.726 7.726z"/></g><path d="M241.289 172.555c0 12.527-4.502 23.993-11.971 32.883-9.385 11.178-23.468 18.286-39.198 18.286s-29.813-7.108-39.198-18.286c-7.469-8.89-11.971-20.356-11.971-32.883 0-28.258 22.911-51.169 51.169-51.169s51.169 22.911 51.169 51.169z" fill="#FB4239"/><g fill="#E21717"><path d="M229.318 205.439c-9.385 11.178-23.468 18.286-39.198 18.286s-29.813-7.108-39.198-18.286c12.465-4.224 25.652-6.408 39.198-6.408 13.536 0 26.743 2.184 39.198 6.408z"/><path d="M190.117 210.37a7.73 7.73 0 0 1-7.726-7.726v-60.176a7.73 7.73 0 0 1 7.726-7.726 7.73 7.73 0 0 1 7.726 7.726v60.176a7.73 7.73 0 0 1-7.726 7.726z"/><path d="M220.205 180.282h-60.176a7.73 7.73 0 0 1-7.726-7.726 7.73 7.73 0 0 1 7.726-7.726h60.176a7.73 7.73 0 0 1 7.726 7.726 7.73 7.73 0 0 1-7.726 7.726z"/></g><path d="M255.903 155.385c-6.694 4.92-12.963 10.564-17.666 17.413-4.429 6.449-7.357 13.795-10.019 21.152-6.127 16.932-11.061 35.436-6.14 52.757 3.263 11.486 10.559 21.309 16.737 31.528s11.479 21.827 10.041 33.681c-.979 8.065.611 39.539 61.277 54.956 30.029 7.631 62.438 9.003 90.93-3.172s52.026-36.373 61.577-65.848c2.443-7.538 3.998-15.45 3.609-23.365a48.84 48.84 0 0 0-5.65-20.481c-3.722-6.989-9.301-13.551-9.529-21.465-.111-3.857 1.096-7.612 1.872-11.392 4.073-19.829-4.113-40.829-17.914-55.639s-31.974-26.459-51.839-30.356c-50.807-9.966-96.536-2.371-127.286 20.231z" fill="#F9E8D4"/><circle cx="371.841" cy="251.558" r="49.949" fill="#FEC007"/><path d="M462.634 297.856c-9.539 29.473-33.079 53.672-61.574 65.849-7.16 3.06-14.567 5.264-22.128 6.727-22.509 4.358-46.317 2.143-68.796-3.564l-6.212-1.7c-54.569-15.906-56.011-45.472-55.063-53.25 1.432-11.857-3.873-23.468-10.044-33.687-6.181-10.219-13.475-20.037-16.74-31.524-2.987-10.508-2.349-21.469 0-32.234.762-3.513 1.7-7.005 2.751-10.456l3.389-10.065c2.668-7.355 5.594-14.711 10.024-21.16 4.698-6.84 10.971-12.486 17.668-17.41 30.741-22.602 76.481-30.195 127.289-20.222 19.852 3.894 38.024 15.535 51.828 30.349s21.994 35.809 17.915 55.64c-.773 3.781-1.978 7.531-1.865 11.394.227 7.912 5.8 14.474 9.519 21.459a48.89 48.89 0 0 1 5.656 20.48c.39 7.922-1.165 15.833-3.617 23.374z" fill="#F9E8D4"/><path d="M303.924 365.168c-54.569-15.906-56.011-45.472-55.063-53.25 1.432-11.857-3.873-23.468-10.044-33.687-6.181-10.219-13.475-20.037-16.74-31.524-2.987-10.508-2.349-21.469 0-32.234.762-3.513 1.7-7.005 2.751-10.456 19.295 5.687 36.973 16.143 51.591 30.761 35.19 35.191 44.359 86.7 27.505 130.39z" fill="#EFCDB1"/><circle cx="371.841" cy="251.558" r="49.949" fill="#FEC007"/><circle cx="364.439" cy="236.9" r="16.724" fill="#F9DE69"/><path d="M281.695 223.18a7.73 7.73 0 0 1-7.726-7.726v-.966a7.73 7.73 0 0 1 7.726-7.726 7.73 7.73 0 0 1 7.726 7.726v.966a7.73 7.73 0 0 1-7.726 7.726zm26.941-46.638a7.73 7.73 0 0 1-7.726-7.726v-.966a7.73 7.73 0 0 1 7.726-7.726 7.73 7.73 0 0 1 7.726 7.726v.966a7.73 7.73 0 0 1-7.726 7.726z" fill="#EFCDB1"/><circle cx="190.117" cy="321.088" r="106.602" fill="#B96340"/><g fill="#A24223"><path d="M265.499 396.47c-41.631 41.631-109.129 41.631-150.76 0-2.579-2.579-5.004-5.267-7.27-8.028 41.879 34.201 103.68 31.782 142.732-7.27s41.471-100.854 7.27-142.732a110.01 110.01 0 0 1 8.027 7.27c41.632 41.631 41.632 109.129.001 150.76zm-95.004-23.544a7.73 7.73 0 0 1-7.726-7.726v-.966a7.73 7.73 0 0 1 7.726-7.726 7.73 7.73 0 0 1 7.726 7.726v.966a7.73 7.73 0 0 1-7.726 7.726zm38.245 8.01a7.73 7.73 0 0 1-7.726-7.726v-.966a7.73 7.73 0 0 1 7.726-7.726 7.73 7.73 0 0 1 7.726 7.726v.966a7.73 7.73 0 0 1-7.726 7.726zm29.747-8.493a7.73 7.73 0 0 1-7.726-7.726v-.966a7.73 7.73 0 0 1 7.726-7.726 7.73 7.73 0 0 1 7.726 7.726v.966a7.73 7.73 0 0 1-7.726 7.726z"/><path d="M208.74 306.58a7.73 7.73 0 0 1-7.726-7.726v-.966a7.73 7.73 0 0 1 7.726-7.726 7.73 7.73 0 0 1 7.726 7.726v.966a7.73 7.73 0 0 1-7.726 7.726zm33.868 22.717a7.73 7.73 0 0 1-7.726-7.726v-.966a7.73 7.73 0 0 1 7.726-7.726 7.73 7.73 0 0 1 7.726 7.726v.966a7.73 7.73 0 0 1-7.726 7.726zm-51.844 112.587a7.73 7.73 0 0 1-7.726-7.726v-.966a7.73 7.73 0 0 1 7.726-7.726 7.73 7.73 0 0 1 7.726 7.726v.966a7.73 7.73 0 0 1-7.726 7.726zm37.421 11.943a7.73 7.73 0 0 1-7.726-7.726v-.966a7.73 7.73 0 0 1 7.726-7.726 7.73 7.73 0 0 1 7.726 7.726v.966a7.73 7.73 0 0 1-7.726 7.726zM56.145 292.508a7.73 7.73 0 0 1-7.726-7.726v-.966a7.73 7.73 0 0 1 7.726-7.726 7.73 7.73 0 0 1 7.726 7.726v.966a7.73 7.73 0 0 1-7.726 7.726z"/></g></svg>