<svg width="21" height="20" viewBox="0 0 21 20" fill="none" xmlns="http://www.w3.org/2000/svg">
<path d="M2.21575 12.1941C2.39316 12.8024 2.63936 13.3889 2.95072 13.9392L2.06369 15.058C1.77404 15.4236 1.80663 15.945 2.13248 16.2745L3.66035 17.8024C3.98983 18.1318 4.51119 18.1608 4.87686 17.8711L5.98838 16.9913C6.56043 17.3208 7.16868 17.5778 7.80228 17.7589L7.96883 19.189C8.02314 19.6524 8.41416 20 8.87759 20H11.0391C11.5025 20 11.8935 19.6524 11.9478 19.189L12.1071 17.8096C12.7878 17.6321 13.4395 17.3678 14.0514 17.0239L15.1267 17.8747C15.4924 18.1644 16.0137 18.1318 16.3432 17.8059L17.8711 16.2781C18.2005 15.9486 18.2295 15.4272 17.9399 15.0615L17.1035 14.0007C17.4511 13.3997 17.7226 12.7589 17.9037 12.0891L19.1926 11.9406C19.656 11.8863 20.0036 11.4953 20.0036 11.0319V8.87038C20.0036 8.40695 19.656 8.01593 19.1926 7.96162L17.9218 7.81318C17.7479 7.15062 17.4873 6.51702 17.1542 5.92324L17.9363 4.93483C18.2259 4.56915 18.1933 4.04779 17.8675 3.71832L16.3432 2.19406C16.0138 1.86459 15.4924 1.83563 15.1267 2.12527L14.1673 2.88559C13.5445 2.51991 12.8783 2.24113 12.1796 2.05286L12.0348 0.811006C11.9804 0.347574 11.5894 0 11.126 0H8.96452C8.50109 0 8.11006 0.347574 8.05576 0.811006L7.91093 2.05286C7.19406 2.24475 6.50978 2.5344 5.87256 2.91455L4.8769 2.12527C4.51122 1.83563 3.98986 1.86821 3.66039 2.19406L2.13251 3.72194C1.80304 4.05141 1.77408 4.57277 2.06372 4.93845L2.89645 5.99203C2.56336 6.59305 2.30992 7.23389 2.14337 7.90007L0.811006 8.05214C0.347574 8.10644 0 8.49747 0 8.9609V11.1224C0 11.5858 0.347574 11.9768 0.811006 12.0311L2.21575 12.1941ZM10.047 6.34689C12.0166 6.34689 13.6205 7.9508 13.6205 9.92038C13.6205 11.89 12.0166 13.4939 10.047 13.4939C8.07748 13.4939 6.47353 11.89 6.47353 9.92038C6.47353 7.9508 8.07744 6.34689 10.047 6.34689Z" fill="#7E94D4"/>
</svg>
